<svg width="22" height="21" viewBox="0 0 22 21" fill="none" xmlns="http://www.w3.org/2000/svg">
<path d="M7.5625 17.6301C7.9422 17.6301 8.25 17.3283 8.25 16.9561C8.25 16.5839 7.9422 16.2821 7.5625 16.2821C7.1828 16.2821 6.875 16.5839 6.875 16.9561C6.875 17.3283 7.1828 17.6301 7.5625 17.6301Z" stroke="white" stroke-linecap="round" stroke-linejoin="round"/>
<path d="M17.1875 17.6301C17.5672 17.6301 17.875 17.3283 17.875 16.9561C17.875 16.5839 17.5672 16.2821 17.1875 16.2821C16.8078 16.2821 16.5 16.5839 16.5 16.9561C16.5 17.3283 16.8078 17.6301 17.1875 17.6301Z" stroke="white" stroke-linecap="round" stroke-linejoin="round"/>
<path d="M2.0625 2.80237H4.8125L6.875 14.2601H17.875" stroke="white" stroke-linecap="round" stroke-linejoin="round"/>
<path d="M6.875 11.5642H17.5931C17.6726 11.5642 17.7497 11.5373 17.8112 11.4879C17.8727 11.4385 17.9148 11.3697 17.9304 11.2933L19.1679 5.22744C19.1779 5.17853 19.1767 5.12805 19.1644 5.07965C19.152 5.03126 19.1289 4.98615 19.0966 4.94758C19.0644 4.90901 19.0238 4.87795 18.9778 4.85663C18.9318 4.83532 18.8815 4.82428 18.8306 4.82431H5.5" stroke="white" stroke-linecap="round" stroke-linejoin="round"/>
</svg>
