<svg width="11" height="11" viewBox="0 0 11 11" fill="none" xmlns="http://www.w3.org/2000/svg">
<path d="M11 10.0481L7.71904 6.76659C8.24778 6.03999 8.53221 5.16429 8.53135 4.26567C8.53135 1.91363 6.61772 0 4.26567 0C1.91363 0 0 1.91363 0 4.26567C0 6.61772 1.91363 8.53135 4.26567 8.53135C5.16429 8.53221 6.03999 8.24778 6.76659 7.71904L10.0481 11L11 10.0481ZM4.26567 7.18411C3.68839 7.18416 3.12405 7.01302 2.64403 6.69233C2.16401 6.37164 1.78987 5.9158 1.56893 5.38247C1.34799 4.84914 1.29017 4.26226 1.40278 3.69606C1.51539 3.12987 1.79337 2.60978 2.20157 2.20157C2.60978 1.79337 3.12987 1.51539 3.69606 1.40278C4.26226 1.29017 4.84914 1.34799 5.38247 1.56893C5.9158 1.78987 6.37164 2.16401 6.69233 2.64403C7.01302 3.12405 7.18416 3.68839 7.18411 4.26567C7.1832 5.03941 6.87543 5.7812 6.32832 6.32831C5.7812 6.87543 5.03941 7.1832 4.26567 7.18411Z" fill="black"/>
</svg>
